<?xml version="1.0" encoding="UTF-8" standalone="no"?>
<!-- Created with Inkscape (http://www.inkscape.org/) -->

<svg
   version="1.1"
   id="svg8551"
   width="311.68396"
   height="99.241096"
   viewBox="0 0 311.68395 99.241095"
   sodipodi:docname="vtaskr-logo-light.svg"
   inkscape:version="1.2.2 (732a01da63, 2022-12-09, custom)"
   xmlns:inkscape="http://www.inkscape.org/namespaces/inkscape"
   xmlns:sodipodi="http://sodipodi.sourceforge.net/DTD/sodipodi-0.dtd"
   xmlns="http://www.w3.org/2000/svg"
   xmlns:svg="http://www.w3.org/2000/svg">
  <defs
     id="defs8555" />
  <sodipodi:namedview
     id="namedview8553"
     pagecolor="#ffffff"
     bordercolor="#666666"
     borderopacity="1.0"
     inkscape:showpageshadow="2"
     inkscape:pageopacity="0.0"
     inkscape:pagecheckerboard="0"
     inkscape:deskcolor="#d1d1d1"
     showgrid="false"
     inkscape:zoom="2.3865611"
     inkscape:cx="125.07536"
     inkscape:cy="64.318487"
     inkscape:window-width="1848"
     inkscape:window-height="1016"
     inkscape:window-x="72"
     inkscape:window-y="27"
     inkscape:window-maximized="1"
     inkscape:current-layer="g8688" />
  <g
     inkscape:groupmode="layer"
     inkscape:label="Image"
     id="g8557"
     transform="translate(-0.133204,-24.28978)">
    <g
       id="g8688"
       transform="translate(0,-4)">
      <g
         id="g1293">
        <path
           style="fill:#e2e2e2;fill-opacity:1;stroke-width:0.274286"
           d="m 114.17143,115.27041 c 1.16915,-0.0514 3.08229,-0.0514 4.25143,0 1.16914,0.0514 0.21257,0.0935 -2.12571,0.0935 -2.33829,0 -3.29486,-0.0421 -2.12572,-0.0935 z m 153.03756,-1.4e-4 c 1.31237,-0.0502 3.53409,-0.0504 4.93715,-5.5e-4 1.40306,0.0499 0.3293,0.0909 -2.38613,0.0912 -2.71543,2.8e-4 -3.86339,-0.0405 -2.55102,-0.0907 z M 128.70858,29.144347 c 1.32,-0.05028 3.48,-0.05028 4.8,0 1.32,0.05028 0.24,0.09142 -2.4,0.09142 -2.64,0 -3.72,-0.04114 -2.4,-0.09142 z m 70.47755,-0.274083 c 1.31237,-0.05017 3.53409,-0.0504 4.93715,-5.48e-4 1.40306,0.04988 0.3293,0.09093 -2.38613,0.09122 -2.71543,2.75e-4 -3.86339,-0.04052 -2.55102,-0.09069 z m 70.77959,-0.274488 c 1.32,-0.05028 3.48,-0.05028 4.8,0 1.32,0.05028 0.24,0.09142 -2.4,0.09142 -2.64,0 -3.72,-0.04114 -2.4,-0.09142 z"
           id="path8706" />
        <path
           style="fill:#dddddd;fill-opacity:1;stroke-width:0.274286"
           d="m 157.37143,85.921132 c 1.54629,-0.04889 4.07658,-0.04889 5.62286,0 1.54629,0.04889 0.28114,0.08889 -2.81143,0.08889 -3.09257,0 -4.35771,-0.04 -2.81143,-0.08889 z M 18.034286,32.982918 c 7.429715,-0.04059 19.58743,-0.04059 27.017144,0 7.429715,0.04059 1.350857,0.0738 -13.508572,0.0738 -14.859429,0 -20.938286,-0.03321 -13.508572,-0.0738 z"
           id="path8704" />
        <path
           style="fill:#d9d9d9;fill-opacity:1;stroke-width:0.274286"
           d="m 233.55259,82.902867 0.002,-32.297152 3.7718,-0.01204 3.7718,-0.01207 -3.7021,0.08836 -3.7021,0.08836 -0.0714,32.220846 -0.0714,32.220849 0.002,-32.297153 z m -90.85544,-53.75852 c 1.32,-0.05028 3.48,-0.05028 4.8,0 1.32,0.05028 0.24,0.09142 -2.4,0.09142 -2.64,0 -3.72,-0.04114 -2.4,-0.09142 z m 70.77918,-0.27448 c 1.32741,-0.05039 3.4257,-0.05013 4.66286,5.48e-4 1.23717,0.0507 0.1511,0.09193 -2.41347,0.09161 -2.56457,-2.74e-4 -3.57679,-0.0418 -2.24939,-0.09219 z m 70.47797,-0.274091 c 1.32,-0.05028 3.48,-0.05028 4.8,0 1.32,0.05028 0.24,0.09142 -2.4,0.09142 -2.64,0 -3.72,-0.04114 -2.4,-0.09142 z"
           id="path8702" />
        <path
           style="fill:#d6d6d6;fill-opacity:1;stroke-width:0.274286"
           d="m 18.994286,28.32005 c 8.108572,-0.04036 21.377144,-0.04036 29.485716,0 8.108571,0.04036 1.474285,0.07339 -14.742858,0.07339 -16.217143,0 -22.851429,-0.03302 -14.742858,-0.07339 z"
           id="path8700" />
        <path
           style="fill:#9be4ff;fill-opacity:1;stroke-width:0.274286"
           d="m 147.07005,116.28904 c -16.64115,-2.27372 -17.64944,-25.144172 -1.28719,-29.196697 3.13746,-0.777071 5.52164,-0.955787 12.82286,-0.961193 l 7.33714,-0.0054 v -1.313801 c 0,-10.206465 -14.09401,-14.304384 -26.94857,-7.835465 l -1.30286,0.65565 v -3.385718 -3.385719 l 2.12572,-0.735893 c 14.12468,-4.889765 26.78677,-2.228826 31.07873,6.531199 2.25651,4.605597 2.44074,6.407695 2.44726,23.938317 l 0.005,14.60571 h -3.70286 -3.70286 v -3.42857 c 0,-3.87083 -0.0504,-3.94649 -1.35174,-2.02858 -3.28861,4.84682 -10.43018,7.51504 -17.52107,6.54619 z m 8.30142,-6.44616 c 6.35783,-1.65601 10.03601,-6.92876 10.48995,-15.037562 l 0.16668,-2.977542 -7.65405,0.12545 c -12.92568,0.211856 -16.05393,1.787649 -16.74892,8.436924 -0.72573,6.94346 5.89659,11.49732 13.74634,9.45273 z m 44.71997,6.56127 c -4.42674,-0.39719 -9.46013,-1.36563 -12.82286,-2.46717 l -1.30286,-0.42678 v -3.71016 c 0,-2.86343 0.0782,-3.67671 0.34286,-3.5636 15.32051,6.54889 27.36,5.12128 27.36,-3.24427 0,-4.291276 -1.92169,-5.721929 -10.51525,-7.828353 -6.95177,-1.703994 -7.58492,-1.894878 -9.97871,-3.008481 -9.36416,-4.356246 -9.23659,-17.592872 0.21514,-22.321377 5.15505,-2.578969 16.30552,-2.747185 23.48134,-0.35424 l 1.87176,0.624184 0.0765,3.449524 0.0765,3.449527 -2.32405,-0.933156 c -10.36515,-4.161827 -21.6305,-2.448565 -22.90262,3.483086 -1.02143,4.762804 0.91202,6.279473 11.35939,8.910679 12.41647,3.127134 15.81514,5.853529 16.24829,13.034307 0.58066,9.62621 -8.53656,16.04118 -21.18543,14.90628 z M 112.18286,77.2044 V 39.208795 l -11.9608,0.0756 -11.960795,0.0756 -3.380525,-5.005715 -3.380528,-5.005714 22.267038,-0.0062 c 12.24687,-0.0034 64.72647,-0.185725 116.62133,-0.405159 51.89486,-0.219434 87.496,-0.401784 88.89143,-0.405249 l 2.53714,-0.0063 v 4.501092 4.501091 l -2.26285,0.150956 c -1.24457,0.08303 -14.56686,0.283283 -39.38286,0.445018 -53.56251,0.349089 -104.51381,0.732255 -130.76572,0.983394 l -18.99429,0.181709 V 77.244487 115.2 h -4.11428 -4.11429 z m 121.50858,5.76703 V 50.742858 h 3.70099 3.70099 l 0.0704,19.114295 0.0704,19.114291 11.38286,-10.048026 11.38286,-10.04803 4.59429,-0.01484 c 2.52685,-0.0082 4.59428,0.03043 4.59428,0.08576 0,0.05533 -5.43086,4.893885 -12.06857,10.752351 -6.63772,5.858463 -12.06857,10.737397 -12.06857,10.842079 0,0.104678 5.67771,5.656427 12.61714,12.337212 6.93943,6.68079 12.61714,12.1863 12.61714,12.23447 0,0.0482 -2.12914,0.0807 -4.73142,0.0724 l -4.73143,-0.0151 -11.79429,-11.36648 -11.79429,-11.366491 -0.0716,11.381631 -0.0716,11.38163 h -3.69984 -3.69985 z M 45.000621,111.01715 C 44.719399,110.376 44.031268,108.864 43.471446,107.65715 37.272714,94.294052 35.39256,89.731992 30.302176,75.702859 28.140042,69.744002 26.190339,64.443353 25.969503,63.923639 l -0.40152,-0.94493 5.650716,-1.854646 c 3.107893,-1.020058 5.693708,-1.811655 5.746256,-1.759107 0.05255,0.05255 1.26647,3.222594 2.697605,7.044549 4.990421,13.327285 11.818542,29.913619 12.314585,29.913619 0.991202,0 13.978925,-33.438709 23.16079,-59.630708 l 2.377454,-6.781868 4.427153,6.543157 4.427155,6.543157 -0.495365,1.61014 c -2.306636,7.497529 -16.078986,41.380537 -23.732545,58.387288 -1.154137,2.56457 -2.554047,5.68114 -3.110913,6.92571 l -1.012485,2.26286 h -6.253226 -6.253226 z"
           id="path8698"
           sodipodi:nodetypes="csscsscccssccccscccsscssssscscssssscccsssssccccccssscccssscccccccccccccccssssssccccccccsssscssssscccssscccs" />
        <path
           style="fill:#c4c4c4;fill-opacity:1;stroke-width:0.274286"
           d="m 94.486267,95.314288 c -1.4e-5,-15.236572 0.03314,-21.509983 0.07367,-13.940912 0.04053,7.569068 0.04054,20.035354 2.4e-5,27.702854 -0.04052,7.6675 -0.07368,1.47463 -0.07369,-13.761942 z"
           id="path8696" />
        <path
           style="fill:#bdbdbd;fill-opacity:1;stroke-width:0.274286"
           d="M 4.5152518,122.81143 C 4.4435382,122.62286 4.4169278,102.34972 4.456118,77.760002 l 0.071255,-44.708573 0.067742,44.91347 0.067742,44.913471 44.914288,0.0702 44.914287,0.0702 -44.922894,0.0678 c -35.735909,0.0539 -44.9495631,-0.002 -45.0532865,-0.27511 z"
           id="path8694" />
        <path
           style="fill:#1f93cc;fill-opacity:1;stroke-width:0.274286"
           d="M 3.3914555,127.28357 C 2.1408887,126.98236 0.95052357,126.04226 0.51622427,125.01283 0.19869444,124.26019 0.13714286,116.61 0.13714286,77.897145 c 0,-51.775165 -0.17871583,-47.128692 1.87148034,-48.657045 l 0.7743374,-0.577242 30.0799494,-0.07217 30.079953,-0.07217 -2.184996,2.197884 -2.184995,2.197887 H 31.480722 4.3885716 V 78.034287 123.15429 H 49.508573 94.628575 V 95.341382 67.528475 l 2.125714,-1.985198 2.125715,-1.9852 0.08063,29.180964 c 0.09538,34.517039 0.201427,32.865409 -2.194217,34.173359 -0.958491,0.52331 -91.2530956,0.88223 -93.3749615,0.37117 z"
           id="path8690"
           sodipodi:nodetypes="sssccccccccccccccccsss" />
        <text
           xml:space="preserve"
           style="font-style:normal;font-variant:normal;font-weight:normal;font-stretch:normal;font-size:85.3333px;line-height:1.25;font-family:sans-serif;-inkscape-font-specification:'sans-serif, Normal';font-variant-ligatures:normal;font-variant-caps:normal;font-variant-numeric:normal;font-variant-east-asian:normal;fill:#1f93cc;fill-opacity:1;stroke:none"
           x="276.61563"
           y="115.48943"
           id="text470"><tspan
             sodipodi:role="line"
             id="tspan468"
             x="276.61563"
             y="115.48943">r</tspan></text>
      </g>
    </g>
  </g>
</svg>
